<svg id="svg" xmlns="http://www.w3.org/2000/svg" xmlns:xlink="http://www.w3.org/1999/xlink" width="400" height="400" viewBox="0, 0, 400,400"><g id="svgg"><path id="path0" d="M44.531 1.302 C 23.953 6.856,6.533 24.453,1.235 45.035 C -0.648 52.352,-0.648 347.648,1.235 354.965 C 6.595 375.790,24.210 393.405,45.035 398.765 C 52.352 400.648,347.648 400.648,354.965 398.765 C 375.790 393.405,393.405 375.790,398.765 354.965 C 400.648 347.648,400.648 52.352,398.765 45.035 C 393.405 24.210,375.790 6.595,354.965 1.235 C 347.909 -0.581,51.270 -0.517,44.531 1.302 M210.053 84.514 C 218.225 88.470,222.909 96.063,222.980 105.469 C 223.175 131.410,187.239 137.853,178.131 113.509 C 170.870 94.101,191.377 75.473,210.053 84.514 M137.734 106.727 C 151.012 113.407,151.730 130.921,139.010 137.844 C 123.755 146.147,107.025 128.885,115.823 113.918 C 120.222 106.435,130.470 103.072,137.734 106.727 M278.774 108.208 C 292.641 117.385,286.872 138.775,270.278 139.713 C 250.909 140.807,244.809 116.165,262.109 106.711 C 265.915 104.632,274.540 105.406,278.774 108.208 M212.682 137.447 C 240.547 144.573,259.758 173.188,258.744 206.055 L 258.594 210.938 199.885 210.938 L 141.176 210.938 141.628 201.758 C 143.754 158.514,177.088 128.343,212.682 137.447 M137.224 146.041 C 143.001 147.137,149.333 149.716,152.191 152.138 L 154.739 154.297 151.882 158.203 C 145.372 167.103,139.419 183.350,138.427 194.922 L 137.891 201.172 112.583 201.378 L 87.274 201.584 87.712 193.566 C 89.342 163.689,112.594 141.371,137.224 146.041 M277.576 146.476 C 297.084 151.557,311.127 170.594,312.312 193.566 L 312.726 201.585 287.808 201.378 L 262.891 201.172 262.686 198.438 C 261.644 184.533,256.933 170.824,249.025 158.688 L 245.776 153.700 248.083 151.844 C 254.709 146.515,268.258 144.049,277.576 146.476 M337.717 231.297 C 346.253 233.667,349.845 242.755,345.264 250.391 C 341.841 256.096,336.372 257.139,314.844 256.193 C 306.035 255.805,279.316 254.787,255.469 253.931 C 231.621 253.074,208.399 252.157,203.864 251.892 L 195.618 251.412 190.615 258.999 L 185.612 266.587 155.111 266.187 C 116.474 265.680,94.929 263.250,76.791 257.352 C 56.762 250.840,45.880 240.416,53.329 234.879 C 55.468 233.289,55.960 233.278,110.361 233.630 C 201.574 234.219,203.572 234.194,294.141 231.292 C 321.921 230.401,334.497 230.403,337.717 231.297 M331.985 264.836 C 353.914 266.168,352.929 266.458,313.748 270.210 C 281.845 273.265,280.084 273.588,280.600 276.284 C 280.956 278.143,283.575 278.377,318.945 279.715 C 340.455 280.528,346.094 280.956,346.094 281.777 C 346.094 282.420,345.133 282.820,343.555 282.832 C 334.899 282.899,280.379 288.164,279.331 289.034 C 274.756 292.831,277.569 293.360,312.891 295.337 C 341.220 296.922,347.332 297.546,346.042 298.719 C 345.855 298.889,331.465 299.967,314.063 301.116 C 278.441 303.467,280.469 303.183,280.469 305.820 C 280.469 308.412,278.923 308.197,314.844 310.587 C 357.498 313.424,357.382 313.520,307.658 316.512 C 256.613 319.584,251.781 318.507,245.183 302.589 L 243.428 298.354 226.597 298.780 C 217.340 299.014,198.340 299.398,184.375 299.633 C 160.381 300.036,131.523 301.135,89.844 303.232 C 60.256 304.721,52.052 301.858,51.980 290.018 C 51.899 276.632,58.050 275.561,117.969 278.530 C 164.203 280.821,177.753 281.217,210.338 281.234 L 242.942 281.250 244.936 277.316 C 248.647 269.992,253.482 265.724,259.936 264.075 C 263.556 263.149,312.772 263.669,331.985 264.836 " stroke="none" fill="#000000" fill-rule="evenodd"></path></g></svg>