<?xml version="1.0" standalone="no"?>
<!DOCTYPE svg PUBLIC "-//W3C//DTD SVG 20010904//EN"
 "http://www.w3.org/TR/2001/REC-SVG-20010904/DTD/svg10.dtd">
<svg version="1.0" xmlns="http://www.w3.org/2000/svg"
 width="512.000000pt" height="512.000000pt" viewBox="0 0 512.000000 512.000000"
 preserveAspectRatio="xMidYMid meet">
<metadata>
Created by potrace 1.16, written by Peter Selinger 2001-2019
</metadata>
<g transform="translate(0.000000,512.000000) scale(0.100000,-0.100000)"
fill="#000000" stroke="none">
<path d="M620 5105 c-306 -66 -541 -302 -604 -607 -14 -69 -16 -279 -16 -1938
0 -1659 2 -1869 16 -1938 63 -306 300 -543 606 -606 69 -14 279 -16 1938 -16
1659 0 1869 2 1938 16 306 63 543 300 606 606 14 69 16 279 16 1938 0 1659 -2
1869 -16 1938 -63 306 -300 543 -606 606 -69 14 -278 16 -1945 15 -1552 0
-1879 -3 -1933 -14z m2035 -1354 c47 -21 108 -86 130 -137 36 -87 4 -210 -71
-273 -198 -164 -488 53 -380 285 26 55 93 120 141 133 52 16 137 12 180 -8z
m-709 -242 c48 -29 84 -95 84 -153 0 -144 -136 -228 -267 -165 -72 35 -114
129 -93 209 31 117 173 173 276 109z m1407 3 c16 -9 44 -34 61 -55 27 -34 31
-46 31 -101 0 -51 -5 -70 -28 -104 -50 -76 -154 -104 -235 -63 -143 73 -132
268 18 336 42 18 109 13 153 -13z m-659 -308 c81 -20 169 -69 238 -132 l57
-54 34 26 c83 63 202 93 302 75 217 -39 367 -231 390 -497 l8 -82 -279 0 -279
0 3 -45 4 -45 -611 0 -611 0 0 45 0 45 -277 2 -278 3 3 60 c4 96 21 164 63
253 88 184 268 291 442 262 70 -11 167 -54 198 -86 l23 -24 50 49 c113 111
279 177 411 164 28 -2 76 -11 109 -19z m1304 -968 c70 -36 94 -131 49 -197
-16 -25 -37 -39 -76 -52 -58 -19 -66 -19 -1051 23 -129 6 -274 10 -321 10
l-87 0 -42 -65 c-24 -36 -51 -70 -61 -75 -10 -6 -109 -10 -221 -10 -430 0
-750 40 -960 120 -110 41 -208 123 -208 173 0 8 9 25 19 38 l19 24 964 1 c654
1 1091 7 1363 17 480 18 568 17 613 -7z m-175 -327 c207 -10 260 -18 230 -37
-7 -5 -151 -20 -320 -36 -170 -15 -316 -30 -325 -32 -10 -3 -18 -11 -18 -18 0
-15 79 -22 355 -31 253 -8 315 -14 315 -31 0 -8 -1 -14 -2 -14 -213 -15 -683
-61 -690 -68 -22 -22 34 -31 312 -46 348 -19 380 -23 380 -40 0 -16 -30 -19
-397 -42 -251 -16 -273 -19 -273 -36 0 -10 3 -18 8 -18 55 2 650 -45 657 -51
6 -6 6 -12 0 -18 -6 -5 -192 -19 -415 -31 -447 -25 -451 -25 -536 33 -35 23
-57 48 -79 91 l-30 59 -425 -6 c-374 -6 -559 -13 -1200 -43 -119 -5 -157 -4
-210 10 -97 25 -136 72 -127 153 6 53 27 79 87 106 55 24 145 25 595 2 354
-18 1182 -37 1242 -29 33 5 44 11 53 34 28 67 75 113 139 136 46 17 368 18
674 3z"/>
</g>
</svg>
